<svg xmlns="http://www.w3.org/2000/svg" xmlns:xlink="http://www.w3.org/1999/xlink" width="495.023" height="428.2" viewBox="0 0 495.023 428.2">
  <defs>
    <filter id="Rectangle_14" x="0" y="48.185" width="495.023" height="380.015" filterUnits="userSpaceOnUse">
      <feOffset dy="20" input="SourceAlpha"/>
      <feGaussianBlur stdDeviation="25" result="blur"/>
      <feFlood flood-opacity="0.102"/>
      <feComposite operator="in" in2="blur"/>
      <feComposite in="SourceGraphic"/>
    </filter>
  </defs>
  <g id="Group_44" data-name="Group 44" transform="translate(60 -90)">
    <g id="Group_43" data-name="Group 43" transform="translate(0 -84)">
      <rect id="Rectangle_32" data-name="Rectangle 32" width="345" height="333" transform="translate(15 174)" fill="#fff"/>
      <g id="card" transform="translate(15 277.185)">
        <g transform="matrix(1, 0, 0, 1, -75, -103.18)" filter="url(#Rectangle_14)">
          <g id="Rectangle_14-2" data-name="Rectangle 14" transform="translate(75 103.18)" fill="#fff" stroke="rgba(112,112,112,0)" stroke-width="1">
            <rect width="345.023" height="230.015" stroke="none"/>
            <rect x="0.5" y="0.5" width="344.023" height="229.015" fill="none"/>
          </g>
        </g>
        <text id="PAYMENT_DETAIL" data-name="PAYMENT DETAIL" transform="translate(26.287 32.18)" fill="#333" font-size="9" font-family="SFProDisplay-Bold, SF Pro Display" font-weight="700"><tspan x="0" y="0">PAYMENT DETAIL</tspan></text>
        <g id="Group_9" data-name="Group 9" transform="translate(26.287 54.218)">
          <text id="Card_Number" data-name="Card Number" transform="translate(0 10)" fill="#666" font-size="9" font-family="SegoeUI, Segoe UI"><tspan x="0" y="0">Card Number</tspan></text>
          <text id="_5678_1234_5634_9012" data-name="5678 1234 5634 9012" transform="translate(0 30.965)" fill="#333" font-size="16" font-family="SegoeUI, Segoe UI"><tspan x="0" y="0">5678 1234 5634 9012</tspan></text>
          <line id="Line_5" data-name="Line 5" x2="190.584" transform="translate(0.411 39.02)" fill="none" stroke="#e6e6e6" stroke-width="1"/>
        </g>
        <g id="Group_8" data-name="Group 8" transform="translate(26.287 166.761)">
          <text id="CVV" transform="translate(0 10)" fill="#666" font-size="9" font-family="SegoeUI, Segoe UI"><tspan x="0" y="0">CVV</tspan></text>
          <line id="Line_6" data-name="Line 6" x2="22.18" transform="translate(0.411 36.556)" fill="none" stroke="#e6e6e6" stroke-width="1"/>
          <text id="_123" data-name="123" transform="translate(0 29.608)" fill="#333" font-size="13" font-family="SegoeUI, Segoe UI"><tspan x="0" y="0">123</tspan></text>
        </g>
        <g id="Group_7" data-name="Group 7" transform="translate(246.445 111.722)">
          <text id="Expiration" transform="translate(0 10)" fill="#666" font-size="9" font-family="SegoeUI, Segoe UI"><tspan x="0" y="0">Expiration</tspan></text>
          <line id="Line_8" data-name="Line 8" x2="71.469" transform="translate(0.411 36.556)" fill="none" stroke="#e6e6e6" stroke-width="1"/>
          <text id="_01_2025" data-name="01 / 2025" transform="translate(0 29.608)" fill="#333" font-size="13" font-family="SegoeUI, Segoe UI"><tspan x="0" y="0">01 / 2025</tspan></text>
        </g>
        <g id="Group_10" data-name="Group 10" transform="translate(26.287 111.722)">
          <text id="Cardholder_Name" data-name="Cardholder Name" transform="translate(0 10)" fill="#666" font-size="9" font-family="SegoeUI, Segoe UI"><tspan x="0" y="0">Cardholder Name</tspan></text>
          <line id="Line_7" data-name="Line 7" x2="182.369" transform="translate(0.411 36.556)" fill="none" stroke="#e6e6e6" stroke-width="1"/>
          <text id="Kurt_Ranzel_Flores" data-name="Kurt Ranzel Flores" transform="translate(0 29.608)" fill="#333" font-size="13" font-family="SegoeUI, Segoe UI"><tspan x="0" y="0">Kurt Ranzel Flores</tspan></text>
        </g>
        <g id="if_social_visa_406088" transform="translate(269.447 73.934)">
          <path id="Path_7" data-name="Path 7" d="M-797.748,845.3l-3.352,15.2h4.063l3.25-15.2Z" transform="translate(818.276 -844.995)" fill="#333"/>
          <path id="Path_8" data-name="Path 8" d="M-803.373,845.3l-4.165,10.3-1.727-8.8a1.822,1.822,0,0,0-1.828-1.5H-817.9l-.1.4a18.286,18.286,0,0,1,3.961,1.3c.609.3.711.6.914,1.3l3.149,12.1h4.266l6.5-15.2h-4.165Z" transform="translate(818 -844.997)" fill="#333"/>
          <path id="Path_9" data-name="Path 9" d="M-772.327,845.3h-3.454a1.78,1.78,0,0,0-1.727,1.1l-5.993,14.1h4.165l.813-2.3h5.079l.508,2.3h3.657Zm-4.876,9.8,2.133-5.7,1.219,5.7Z" transform="translate(818.569 -844.995)" fill="#333"/>
          <path id="Path_10" data-name="Path 10" d="M-788.61,849.5c0-.5.508-1.1,1.727-1.3a7.63,7.63,0,0,1,3.961.7l.711-3.2a11.921,11.921,0,0,0-3.758-.7c-3.961,0-6.7,2.1-6.7,5,0,2.2,2.031,3.4,3.454,4.1,1.524.7,2.031,1.2,2.031,1.9,0,1-1.219,1.5-2.438,1.5a7.669,7.669,0,0,1-4.063-1l-.711,3.3a12.255,12.255,0,0,0,4.469.8c4.165,0,6.907-2,6.907-5.2C-783.024,851.6-788.712,851.3-788.61,849.5Z" transform="translate(818.388 -845)" fill="#333"/>
        </g>
        <text id="CHECKOUT" transform="translate(174.976 191.44)" fill="#fff" font-size="13" font-family="SFProDisplay-Semibold, SF Pro Display" font-weight="600"><tspan x="0" y="0">CHECKOUT</tspan></text>
      </g>
      <path id="Path_5880" data-name="Path 5880" d="M4,0H46.11a4,4,0,0,1,4,4V19a4,4,0,0,1-4,4H4a4,4,0,0,1-4-4V4A4,4,0,0,1,4,0Z" transform="translate(33.073 209.823)" fill="#2192b1"/>
      <g id="if_social_visa_406088-2" data-name="if_social_visa_406088" transform="translate(42.931 216.395)">
        <path id="Path_7-2" data-name="Path 7" d="M-799.112,845.3l-1.988,9.018h2.41l1.928-9.018Z" transform="translate(811.289 -845.119)" fill="#fff"/>
        <path id="Path_8-2" data-name="Path 8" d="M-809.324,845.259l-2.47,6.111-1.024-5.221a1.081,1.081,0,0,0-1.085-.89h-4.037l-.06.237a10.842,10.842,0,0,1,2.35.771c.361.178.422.356.542.771l1.868,7.179h2.531l3.856-9.018h-2.47Z" transform="translate(818 -845.079)" fill="#fff"/>
        <path id="Path_9-2" data-name="Path 9" d="M-776.872,845.3h-2.049a1.056,1.056,0,0,0-1.024.653l-3.555,8.365h2.47l.482-1.365h3.013l.3,1.365h2.169Zm-2.892,5.814,1.265-3.382.723,3.382Z" transform="translate(804.302 -845.119)" fill="#fff"/>
        <path id="Path_10-2" data-name="Path 10" d="M-790.966,847.671c0-.3.3-.653,1.024-.772a4.526,4.526,0,0,1,2.35.415l.422-1.9A7.071,7.071,0,0,0-789.4,845c-2.35,0-3.977,1.246-3.977,2.967,0,1.306,1.205,2.018,2.049,2.433.9.415,1.205.712,1.205,1.128,0,.594-.723.89-1.446.89a4.549,4.549,0,0,1-2.41-.594l-.422,1.959a7.269,7.269,0,0,0,2.651.475c2.47,0,4.1-1.187,4.1-3.086C-787.652,848.917-791.026,848.739-790.966,847.671Z" transform="translate(808.629 -845)" fill="#fff"/>
      </g>
      <text id="Payment_method" data-name="Payment method" transform="translate(19 196)" font-size="9" font-family="SFProDisplay-Medium, SF Pro Display" font-weight="500"><tspan x="0" y="0">Payment method</tspan></text>
      <g id="Group_12" data-name="Group 12" transform="translate(119.328 209.823)">
        <rect id="Rectangle_16" data-name="Rectangle 16" width="50.11" height="23.002" rx="4" transform="translate(0 0)" fill="#f2f2f2"/>
        <g id="Group_15" data-name="Group 15" transform="translate(7.393 8.215)">
          <path id="Path_11" data-name="Path 11" d="M4.107.2,2.875,3.65,2.793.2H.9L0,5.95H1.232l.657-4.107L2.054,5.95h.9l1.4-4.19L3.861,5.95H5.093L5.915.2Z" transform="translate(0 -0.033)" fill="#b3b3b3"/>
          <path id="Path_12" data-name="Path 12" d="M10.561,3.1h0c0-.575,0-1.479-.739-1.725a2.524,2.524,0,0,0-2.382.411,6.545,6.545,0,0,1-.082.9,3.364,3.364,0,0,1,1.15-.246c.575,0,.986.164.986.575V3.26H8.343a1.619,1.619,0,0,0-1.4.821A2.117,2.117,0,0,0,6.7,5.15h0A1.1,1.1,0,0,0,7.932,6.3a2.963,2.963,0,0,0,1.232-.657v.493h1.068l.329-2.711ZM9.329,4.328c0,.411-.575,1.15-1.068.9a.613.613,0,0,1-.329-.739A.968.968,0,0,1,8.754,4h.493Z" transform="translate(-1.196 -0.218)" fill="#b3b3b3"/>
          <path id="Path_13" data-name="Path 13" d="M13.372,2.568h1.15L14.768,1.5h-1.4a1.82,1.82,0,0,0-1.314.657,1.46,1.46,0,0,0,.411,1.889h0a8.065,8.065,0,0,1,.821.575c.164.164.082.657-.246.657h-.575a2.84,2.84,0,0,1-.986-.246L11.4,6.1a3.727,3.727,0,0,0,.821.082h1.068a1.323,1.323,0,0,0,1.15-.821A1.559,1.559,0,0,0,14.275,3.8h0c-.082-.082-.082-.164-.164-.164h-.082c-.164-.082-.329-.246-.575-.411h0a.08.08,0,0,1-.082-.082C13.125,3.143,12.879,2.568,13.372,2.568Z" transform="translate(-2.035 -0.265)" fill="#b3b3b3"/>
          <path id="Path_14" data-name="Path 14" d="M16.8,3.886h0l.246-1.4h.575l.164-1.15h-.575L17.378.6H16.146l-.657,3.532h0c0,.329-.164,1.314.082,1.643a.675.675,0,0,0,.493.329h.082a1.2,1.2,0,0,0,.821-.082h.082a.254.254,0,0,1,.164-.082h0a2.367,2.367,0,0,0,.329-.9.617.617,0,0,1-.821-.164A1.481,1.481,0,0,1,16.8,4.05Z" transform="translate(-2.755 -0.104)" fill="#b3b3b3"/>
          <path id="Path_15" data-name="Path 15" d="M19.993,1.291h0a.636.636,0,0,1-.246.082h-.082a2.316,2.316,0,0,0-1.479,1.889c-.246,1.643.246,2.3.9,2.711a.08.08,0,0,1,.082.082h.082a4.42,4.42,0,0,0,2.218,0,9.367,9.367,0,0,1,.246-1.232c-1.479.575-2.054.082-2.136,0a1.311,1.311,0,0,1-.246-.657H21.8s.411-1.643-.411-2.464A1.418,1.418,0,0,0,19.993,1.291Zm.9,2.054H19.5a.785.785,0,0,1,1.314-.657A1.809,1.809,0,0,1,20.9,3.345Z" transform="translate(-3.235 -0.22)" fill="#b3b3b3"/>
          <path id="Path_16" data-name="Path 16" d="M25.939,1.579c-.575-.329-1.068.246-1.232.575l.082-.657H23.721L22.9,6.343h1.232l.329-2.464c.329-.986.821-1.068.986-.986h0Z" transform="translate(-4.088 -0.261)" fill="#b3b3b3"/>
          <path id="Path_17" data-name="Path 17" d="M28.006,4.764c-.575-.329-.575-1.232-.575-1.479a2.152,2.152,0,0,1,1.232-1.972c.657-.329,1.479.329,1.479.329l.164-1.4a3.2,3.2,0,0,0-3.039.329A3.933,3.933,0,0,0,26.2,3.943c0,.164,0,.246.082.329a2.253,2.253,0,0,0,.986,1.479,2.36,2.36,0,0,0,2.136.082s0-.164.164-1.314A1.223,1.223,0,0,1,28.006,4.764Z" transform="translate(-4.676 0.003)" fill="#b3b3b3"/>
          <path id="Path_18" data-name="Path 18" d="M34.661,3.2h0c0-.575,0-1.479-.739-1.725a2.474,2.474,0,0,0-2.382.411,6.545,6.545,0,0,1-.082.9,3.365,3.365,0,0,1,1.15-.246c.575,0,.986.164.986.575V3.36h-1.15a1.619,1.619,0,0,0-1.4.821A2.117,2.117,0,0,0,30.8,5.25h0A1.1,1.1,0,0,0,32.032,6.4c.575-.082.657-.246,1.232-.575l-.082.493H34.25l.329-2.711A.741.741,0,0,0,34.661,3.2Zm-1.232,1.15c0,.411-.575,1.15-1.068.9a.613.613,0,0,1-.329-.739.968.968,0,0,1,.821-.493h.575Z" transform="translate(-5.498 -0.236)" fill="#b3b3b3"/>
          <path id="Path_19" data-name="Path 19" d="M37.847,2.811h0l.493-1.232c-.575-.329-1.068.246-1.232.575l.082-.657H36.121L35.3,6.343h1.232l.329-2.464C37.189,2.811,37.6,2.729,37.847,2.811Z" transform="translate(-6.302 -0.261)" fill="#b3b3b3"/>
          <path id="Path_20" data-name="Path 20" d="M41.65.2,41.4,1.843s-.493-1.068-1.972-.411c-1.15.493-1.232,2.054-1.232,2.793h0v.411h0a1.829,1.829,0,0,0,.9,1.4A1.715,1.715,0,0,0,40.829,5.7l-.082.411H41.9L42.965.2Zm-.575,3.286c0,.329-.329,1.4-1.068,1.314-.657-.082-.493-1.314-.493-1.4.164-.657.411-.986,1.068-1.068C41.157,2.336,41.157,3.239,41.075,3.486Z" transform="translate(-6.819 -0.033)" fill="#b3b3b3"/>
        </g>
      </g>
      <g id="Group_13" data-name="Group 13" transform="translate(205.584 209.823)">
        <rect id="Rectangle_16-2" data-name="Rectangle 16" width="50.11" height="23.002" rx="4" transform="translate(0 0)" fill="#f2f2f2"/>
        <g id="Group_16" data-name="Group 16" transform="translate(7.393 8.215)">
          <path id="Path_21" data-name="Path 21" d="M5.9,3.007A2.968,2.968,0,0,0,8.907,6.013a1.586,1.586,0,0,0,1.315-.376V4.322a1.419,1.419,0,0,1-1.315.752A1.832,1.832,0,0,1,7.027,3.007,1.931,1.931,0,0,1,8.907.94a1.706,1.706,0,0,1,1.315.564V.376A2.716,2.716,0,0,0,8.907,0,2.968,2.968,0,0,0,5.9,3.007Z" transform="translate(5.187)" fill="#b3b3b3"/>
          <path id="Path_22" data-name="Path 22" d="M11.595,0A2.893,2.893,0,0,0,8.776,1.879,2.671,2.671,0,0,0,8.4,3.007a2.968,2.968,0,0,0,3.007,3.007A3.213,3.213,0,0,0,14.413,3.57V3.007A2.714,2.714,0,0,0,11.595,0Z" transform="translate(7.385)" fill="#b3b3b3"/>
          <path id="Path_23" data-name="Path 23" d="M5.855,2.443c-.564-.376-.752-.564-.752-.752,0-.376.376-.564.752-.564s.564.188.94.376L7.358.752A3.377,3.377,0,0,0,5.667,0,1.854,1.854,0,0,0,3.788,1.691c0,.752.376,1.127,1.315,1.5.376.188.752.188.752.376q.564.282.564.564a.86.86,0,0,1-.94.752.912.912,0,0,1-1.127-.564L3.6,4.886A2.358,2.358,0,0,0,5.667,6.013,1.931,1.931,0,0,0,7.734,4.134C7.546,3.195,7.17,2.819,5.855,2.443Z" transform="translate(3.165)" fill="#b3b3b3"/>
          <rect id="Rectangle_19" data-name="Rectangle 19" width="1.127" height="5.825" transform="translate(5.262 0.188)" fill="#b3b3b3"/>
          <path id="Path_24" data-name="Path 24" d="M1.691.1H0V5.925H1.691a3.94,3.94,0,0,0,2.067-.752A3.276,3.276,0,0,0,4.886,2.919,3.1,3.1,0,0,0,1.691.1ZM3.007,4.422A2.025,2.025,0,0,1,1.5,4.8H1.127V1.04H1.5a2.911,2.911,0,0,1,1.5.376,2.134,2.134,0,0,1,.564,1.5A2.134,2.134,0,0,1,3.007,4.422Z" transform="translate(0 0.088)" fill="#b3b3b3"/>
          <path id="Path_25" data-name="Path 25" d="M19.143,3.482a1.646,1.646,0,0,0,1.315-1.691C20.458.664,19.707.1,18.391.1H16.7V5.925h1.127V3.482h.188l1.5,2.255h1.5Zm-.94-.752h-.376V1.04H18.2c.752,0,1.127.376,1.127.94C19.331,2.355,18.955,2.731,18.2,2.731Z" transform="translate(14.682 0.088)" fill="#b3b3b3"/>
          <path id="Path_26" data-name="Path 26" d="M14.319,3.858,12.627.1H11.5l2.443,5.825h.564L16.95.1H15.822Z" transform="translate(10.11 0.088)" fill="#b3b3b3"/>
          <path id="Path_27" data-name="Path 27" d="M14.7,5.925h3.195V4.8H15.827v-1.5h1.879v-.94H15.827V1.04h2.067V.1H14.7Z" transform="translate(12.924 0.088)" fill="#b3b3b3"/>
        </g>
      </g>
      <g id="Group_14" data-name="Group 14" transform="translate(291.84 209.823)">
        <rect id="Rectangle_16-3" data-name="Rectangle 16" width="50.11" height="23.002" rx="4" transform="translate(0 0)" fill="#f2f2f2"/>
        <g id="Group_23" data-name="Group 23" transform="translate(9.858 7.393)">
          <g id="Group_17" data-name="Group 17" transform="translate(17.303)">
            <path id="Path_28" data-name="Path 28" d="M28.243,0h-2.4a.469.469,0,0,0-.353.282L24.5,6.5a.187.187,0,0,0,.212.212h1.271a.187.187,0,0,0,.212-.212l.282-1.766a.323.323,0,0,1,.353-.282h.777a2.461,2.461,0,0,0,2.754-2.331A1.851,1.851,0,0,0,30.079.565,2.848,2.848,0,0,0,28.243,0m.282,2.331c-.141.847-.777.847-1.412.847h-.424l.282-1.624c0-.071.071-.141.212-.141h.141c.424,0,.847,0,1.059.282.141.071.141.282.141.636" transform="translate(-24.5)" fill="#b3b3b3"/>
          </g>
          <g id="Group_18" data-name="Group 18">
            <path id="Path_29" data-name="Path 29" d="M3.743,0h-2.4A.469.469,0,0,0,.989.282L0,6.5a.187.187,0,0,0,.212.212h1.13a.469.469,0,0,0,.353-.282l.282-1.695a.323.323,0,0,1,.353-.282h.777A2.461,2.461,0,0,0,5.862,2.119,1.851,1.851,0,0,0,5.579.565,2.714,2.714,0,0,0,3.743,0m.282,2.331c-.141.847-.777.847-1.412.847H2.26l.282-1.624c0-.071.071-.141.212-.141H2.9c.424,0,.847,0,1.059.282a.756.756,0,0,1,.071.636" fill="#b3b3b3"/>
          </g>
          <g id="Group_19" data-name="Group 19" transform="translate(5.535 2.119)">
            <path id="Path_30" data-name="Path 30" d="M13.32,3.141H12.19c-.071,0-.212.071-.212.141l-.071.353-.071-.141A1.661,1.661,0,0,0,10.495,3,2.714,2.714,0,0,0,7.882,5.331,2.105,2.105,0,0,0,8.305,7.1a1.78,1.78,0,0,0,1.483.565,2.257,2.257,0,0,0,1.624-.636l-.071.353a.187.187,0,0,0,.212.212h1.059a.469.469,0,0,0,.353-.282L13.6,3.353c-.071-.071-.212-.212-.282-.212M11.7,5.4a1.366,1.366,0,0,1-1.342,1.13,1.129,1.129,0,0,1-.777-.282A1.506,1.506,0,0,1,9.365,5.4a1.26,1.26,0,0,1,2.048-.847A1.233,1.233,0,0,1,11.7,5.4" transform="translate(-7.837 -3)" fill="#b3b3b3"/>
          </g>
          <g id="Group_20" data-name="Group 20" transform="translate(22.767 2.119)">
            <path id="Path_31" data-name="Path 31" d="M37.72,3.141H36.59c-.071,0-.212.071-.212.141l-.071.353-.071-.141A1.661,1.661,0,0,0,34.895,3a2.714,2.714,0,0,0-2.613,2.331A2.105,2.105,0,0,0,32.705,7.1a1.78,1.78,0,0,0,1.483.565,2.257,2.257,0,0,0,1.624-.636l-.071.353a.187.187,0,0,0,.212.212h1.059a.469.469,0,0,0,.353-.282L38,3.353c-.071-.071-.141-.212-.282-.212M36.1,5.4a1.366,1.366,0,0,1-1.342,1.13,1.129,1.129,0,0,1-.777-.282,1.506,1.506,0,0,1-.212-.847,1.26,1.26,0,0,1,2.048-.847A.811.811,0,0,1,36.1,5.4" transform="translate(-32.237 -3)" fill="#b3b3b3"/>
          </g>
          <g id="Group_21" data-name="Group 21" transform="translate(11.723 2.26)">
            <path id="Path_32" data-name="Path 32" d="M22.038,3.2h-1.2a.367.367,0,0,0-.282.141L19,5.742l-.706-2.26a.326.326,0,0,0-.353-.212h-1.13c-.141,0-.212.141-.212.282L17.871,7.3l-1.2,1.695c-.071.141,0,.353.141.353h1.13a.367.367,0,0,0,.282-.141l3.884-5.579c.212-.212.071-.424-.071-.424" transform="translate(-16.6 -3.2)" fill="#b3b3b3"/>
          </g>
          <g id="Group_22" data-name="Group 22" transform="translate(28.602 0.043)">
            <path id="Path_33" data-name="Path 33" d="M41.489.23,40.5,6.586a.187.187,0,0,0,.212.212H41.7a.469.469,0,0,0,.353-.282L43.042.3a.187.187,0,0,0-.212-.212H41.7c-.071-.071-.141,0-.212.141" transform="translate(-40.5 -0.061)" fill="#b3b3b3"/>
          </g>
        </g>
      </g>
      <rect id="Rectangle_17" data-name="Rectangle 17" width="345.023" height="1.643" transform="translate(15 242.682)" fill="#f2f2f2"/>
      <rect id="Rectangle_18" data-name="Rectangle 18" width="86.256" height="1.643" transform="translate(15 242.682)" fill="#2192b1"/>
      <path id="Path_5871" data-name="Path 5871" d="M0,0H345V3H0Z" transform="translate(15 507)" fill="rgba(119,119,119,0.36)"/>
    </g>
    <rect id="Rectangle_33" data-name="Rectangle 33" width="132" height="25" rx="3" transform="translate(204 372)" fill="#2192b1"/>
    <text id="Checkout-2" data-name="Checkout" transform="translate(243 389)" fill="#fff" font-size="13" font-family="SFProDisplay-Regular, SF Pro Display"><tspan x="0" y="0">Checkout</tspan></text>
  </g>
</svg>
